<svg width="171" height="196" viewBox="0 0 171 196" fill="none" xmlns="http://www.w3.org/2000/svg">
<path fill-rule="evenodd" clip-rule="evenodd" d="M85.5108 8.09473L14.0731 49.3284L28.0534 57.4035L85.5096 24.2395L142.952 57.4123L156.934 49.3412L85.5108 8.09473Z" fill="white"/>
<path fill-rule="evenodd" clip-rule="evenodd" d="M40.6164 64.6579L56.0283 73.5599L85.5071 56.5447L114.975 73.5623L130.389 64.6643L85.5086 38.746L40.6164 64.6579Z" fill="white"/>
<path fill-rule="evenodd" clip-rule="evenodd" d="M68.5899 80.8141L85.4944 90.5772L102.41 80.8141L85.5045 71.0509L68.5899 80.8141Z" fill="white"/>
<path fill-rule="evenodd" clip-rule="evenodd" d="M21.7737 68.283L7.79338 60.2082L7.78455 142.691L79.2119 183.94V167.795L21.7673 134.621L21.7737 68.283Z" fill="white"/>
<path fill-rule="evenodd" clip-rule="evenodd" d="M62.3113 91.6964L62.3086 111.219L79.2119 120.979V101.457L62.3113 91.6964Z" fill="white"/>
<path fill-rule="evenodd" clip-rule="evenodd" d="M49.7481 84.4395L34.3362 75.5388L34.3298 127.368L79.2117 153.287V135.487L49.7457 118.471L49.7481 84.4395Z" fill="white"/>
<path fill-rule="evenodd" clip-rule="evenodd" d="M149.236 68.2907L149.229 134.634L91.7735 167.799V183.942L163.211 142.709L163.22 60.2195L149.236 68.2907Z" fill="white"/>
<path fill-rule="evenodd" clip-rule="evenodd" d="M136.676 75.5427L121.26 84.4395L121.256 118.478L91.7748 135.495L91.7748 153.292L136.669 127.379L136.676 75.5427Z" fill="white"/>
<path fill-rule="evenodd" clip-rule="evenodd" d="M108.696 91.6914L91.7745 101.458V120.99L108.693 111.224L108.696 91.6914Z" fill="white"/>
<path d="M86.3887 193.059L86.3926 163.922L143.183 131.143L143.191 65.557L168.425 51.0023L168.413 145.715L127.401 169.387L86.3887 193.059ZM2.58764 50.9822L27.8173 65.5418L27.8085 131.127L84.5976 163.922L84.5939 193.059L2.57484 145.692L2.58764 50.9822ZM114.827 79.8446L85.5033 62.9096L56.177 79.837L30.519 65.0299L85.5058 33.2912L140.489 65.0436L114.827 79.8446ZM86.3963 132.23L115.739 115.294L115.744 81.3881L141.397 66.5923L141.389 130.107L86.3926 161.85L86.3963 132.23ZM84.6052 98.3167L84.6012 130.161L57.051 114.25L57.0547 82.4158L84.6052 98.3167ZM85.4994 96.7607L57.9717 80.8723L85.5033 64.9814L113.032 80.8799L85.4994 96.7607ZM86.3987 98.3131L113.949 82.4234L113.944 114.257L86.3963 130.159L86.3987 98.3131ZM29.6123 66.5783L55.2599 81.3805L55.256 115.286L84.6001 132.232L84.5976 161.85L29.6044 130.091L29.6123 66.5783ZM167.527 49.4488L142.285 64.0086L85.5058 31.2193L28.7242 63.9934L3.48545 49.4275L85.5097 2.08257L167.527 49.4488ZM85.9579 0.269878L85.5097 0.0119629L0.792617 48.9089L0.779816 146.729L85.0421 195.39L85.4905 195.649L170.208 146.75L170.22 48.9305L85.9579 0.269878Z" fill="white"/>
</svg>
