<svg width="16" height="14" viewBox="0 0 16 14" fill="none" xmlns="http://www.w3.org/2000/svg">
<path d="M15.9737 13.4824C15.3695 13.6465 14.8309 13.7349 14.358 13.7349C12.7816 13.7349 11.7176 12.624 11.179 10.3895H11.1133C9.81281 12.8007 7.98686 14 5.68801 14C3.96716 14 2.58785 13.3814 1.55008 12.1316C0.512315 10.8819 0 9.3165 0 7.4229C0 5.21371 0.591133 3.44635 1.76026 2.07033C2.92939 0.69432 4.51888 0 6.52874 0C7.60591 0 8.578 0.290352 9.41872 0.858431C10.2594 1.43913 10.9031 2.24707 11.3498 3.29486H11.4023L12.335 0.265104H15.6979L12.8867 6.98106C13.202 8.54644 13.5304 9.61948 13.8982 10.1876C14.2135 10.7556 14.6601 11.046 15.2118 11.046C15.5271 11.046 15.7767 10.9955 16 10.9071L15.9737 13.4824ZM10.3777 6.86745C10.1018 5.44094 9.65517 4.33003 9.0509 3.57259C8.45977 2.80252 7.73727 2.42381 6.90969 2.42381C5.83251 2.42381 4.96552 2.89089 4.32184 3.81244C3.67816 4.74662 3.38916 5.8954 3.38916 7.24617C3.38916 8.48332 3.63875 9.50586 4.20361 10.339C4.75534 11.1722 5.5041 11.5762 6.43678 11.5762C7.22496 11.5762 7.94745 11.2101 8.59113 10.5158C9.24795 9.79621 9.78654 8.74842 10.22 7.37241L10.3777 6.86745Z" fill="white" fill-opacity="0.8"/>
</svg>
