<svg width="11" height="22" viewBox="0 0 11 22" fill="none" xmlns="http://www.w3.org/2000/svg">
<path d="M2.52441 16.0014V21.5H0V5.19318C0 3.75142 0.461914 2.6179 1.375 1.77273C2.27734 0.927557 3.53418 0.5 5.08105 0.5C6.57422 0.5 7.72363 0.838068 8.58301 1.49432C9.43164 2.17045 9.85058 3.10511 9.85058 4.28835C9.85058 5.10369 9.57129 5.86932 9.01269 6.57528C8.4541 7.28125 7.73437 7.76847 6.84277 8.03693V8.0767C8.18555 8.27557 9.22754 8.72301 9.93652 9.44886C10.6455 10.1548 11 11.0597 11 12.1733C11 13.4858 10.5059 14.5597 9.52832 15.3849C8.54004 16.2102 7.25098 16.6179 5.63965 16.6179C4.50098 16.6179 3.45898 16.4091 2.52441 16.0014ZM4.125 9.20028V7.29119C5.05957 7.18182 5.82226 6.86364 6.43457 6.3267C7.03613 5.77983 7.33691 5.1733 7.33691 4.47727C7.33691 3.10511 6.57422 2.40909 5.07031 2.40909C4.25391 2.40909 3.62012 2.64773 3.17969 3.13494C2.73926 3.62216 2.52441 4.2983 2.52441 5.18324V13.9233C3.50195 14.4503 4.45801 14.7088 5.38184 14.7088C6.28418 14.7088 6.99316 14.4901 7.49805 14.0625C8.00293 13.625 8.25 13.0085 8.25 12.223C8.25 10.4432 6.875 9.44886 4.125 9.20028Z" fill="white" fill-opacity="0.8"/>
</svg>
