<svg width="22" height="22" viewBox="0 0 22 22" fill="none" xmlns="http://www.w3.org/2000/svg">
<path d="M17.6642 4.88583C16.445 4.3175 15.125 3.905 13.75 3.66667C13.738 3.66628 13.726 3.66854 13.7149 3.6733C13.7038 3.67805 13.6939 3.68517 13.6859 3.69417C13.5209 3.99667 13.3284 4.39083 13.2 4.69333C11.7416 4.47333 10.2584 4.47333 8.80003 4.69333C8.67169 4.38167 8.47919 3.99667 8.30503 3.69417C8.29586 3.67584 8.26836 3.66667 8.24086 3.66667C6.86586 3.905 5.55503 4.3175 4.32669 4.88583C4.31753 4.88583 4.30836 4.895 4.29919 4.90417C1.80586 8.635 1.11836 12.265 1.45753 15.8583C1.45753 15.8767 1.46669 15.895 1.48503 15.9042C3.13503 17.1142 4.72086 17.8475 6.28836 18.3333C6.31586 18.3425 6.34336 18.3333 6.35253 18.315C6.71919 17.8108 7.04919 17.2792 7.33336 16.72C7.35169 16.6833 7.33336 16.6467 7.29669 16.6375C6.77419 16.4358 6.27919 16.1975 5.79336 15.9225C5.75669 15.9042 5.75669 15.8492 5.78419 15.8217C5.88503 15.7483 5.98586 15.6658 6.08669 15.5925C6.10503 15.5742 6.13253 15.5742 6.15086 15.5833C9.30419 17.0225 12.705 17.0225 15.8217 15.5833C15.84 15.5742 15.8675 15.5742 15.8859 15.5925C15.9867 15.675 16.0875 15.7483 16.1884 15.8308C16.225 15.8583 16.225 15.9133 16.1792 15.9317C15.7025 16.2158 15.1984 16.445 14.6759 16.6467C14.6392 16.6558 14.63 16.7017 14.6392 16.7292C14.9325 17.2883 15.2625 17.82 15.62 18.3242C15.6475 18.3333 15.675 18.3425 15.7025 18.3333C17.2792 17.8475 18.865 17.1142 20.515 15.9042C20.5334 15.895 20.5425 15.8767 20.5425 15.8583C20.9459 11.7058 19.8734 8.10333 17.7009 4.90417C17.6917 4.895 17.6825 4.88583 17.6642 4.88583ZM7.81003 13.6675C6.86586 13.6675 6.07753 12.7967 6.07753 11.7242C6.07753 10.6517 6.84753 9.78083 7.81003 9.78083C8.78169 9.78083 9.55169 10.6608 9.54253 11.7242C9.54253 12.7967 8.77253 13.6675 7.81003 13.6675ZM14.1992 13.6675C13.255 13.6675 12.4667 12.7967 12.4667 11.7242C12.4667 10.6517 13.2367 9.78083 14.1992 9.78083C15.1709 9.78083 15.9409 10.6608 15.9317 11.7242C15.9317 12.7967 15.1709 13.6675 14.1992 13.6675Z" fill="#E5E5E5"/>
</svg>
