<svg width="22" height="12" viewBox="0 0 22 12" fill="none" xmlns="http://www.w3.org/2000/svg">
<path d="M21.4946 0.737034L21.4948 0.737061C21.5067 0.653239 21.4948 0.61879 21.4925 0.612989L21.4923 0.612545C21.4911 0.609393 21.4891 0.604066 21.4744 0.593257C21.4257 0.557513 21.3061 0.514493 21.0942 0.502982C20.8968 0.492259 20.6842 0.511953 20.513 0.537069C20.4292 0.549355 20.3593 0.56234 20.3112 0.57206C20.2873 0.576905 20.2689 0.580896 20.2572 0.583522L20.2452 0.586269C18.7319 0.976669 17.1726 1.373 15.5977 1.77331C10.7503 3.00541 5.75469 4.27516 1.49666 5.52554L1.48205 5.52983L1.46719 5.53322C1.22516 5.58854 1.0348 5.64177 0.886332 5.69075L4.16182 6.32061C4.16219 6.32068 4.16257 6.32075 4.16294 6.32082C4.96054 6.47026 5.56054 6.45982 5.95045 6.41653C6.14582 6.39485 6.28932 6.36481 6.37935 6.34202C6.42438 6.33062 6.45608 6.32103 6.47423 6.31517C6.47965 6.31342 6.48386 6.31201 6.48687 6.31098L14.3892 2.96071L21.4946 0.737034ZM21.4946 0.737034L21.4931 0.750932M21.4946 0.737034L21.4931 0.750932M21.4931 0.750932C21.47 0.954784 21.3423 1.4632 21.1522 2.21723C20.9691 2.94339 20.7415 3.84975 20.5417 4.79353L19.1868 10.3318L19.1808 10.3565M21.4931 0.750932L19.1808 10.3565M19.1808 10.3565L19.1785 10.3735M19.1808 10.3565L19.1785 10.3735M19.1785 10.3735C19.1783 10.3741 19.1782 10.3748 19.178 10.3756C19.1763 10.3831 19.1724 10.3986 19.1653 10.4196C19.1509 10.4623 19.1247 10.5231 19.08 10.5866C18.9996 10.7007 18.8369 10.8586 18.473 10.9092C18.0738 10.9645 17.5229 10.8672 16.9932 10.7124C16.4757 10.5613 16.0515 10.3777 15.9386 10.3213L15.9387 10.3212L15.9274 10.3159C15.8738 10.2908 15.6403 10.1952 15.2971 10.0546C14.8442 9.86924 14.2004 9.60569 13.5274 9.32286C12.3134 8.81268 10.9823 8.23122 10.303 7.85779L10.303 7.85776L10.2982 7.85522C10.234 7.82079 10.1787 7.78467 10.1372 7.75058C10.1793 7.7144 10.2484 7.66447 10.3584 7.60434L10.3665 7.59993L10.3744 7.59523L16.3102 4.06272L16.3103 4.06283L16.3197 4.05694C16.5246 3.9288 16.7348 3.75585 16.8878 3.57782C16.9622 3.4912 17.0446 3.37873 17.0966 3.24952C17.144 3.13203 17.2101 2.88299 17.0515 2.64228C16.8984 2.41002 16.6491 2.36067 16.5098 2.34977C16.3538 2.33756 16.1791 2.35959 15.997 2.39878C15.6274 2.47831 15.1057 2.6562 14.3896 2.96054L19.1785 10.3735ZM16.4366 3.34728C16.4365 3.34733 16.4349 3.3472 16.4318 3.34672C16.4352 3.34699 16.4367 3.34723 16.4366 3.34728Z" fill="#E5E5E5" stroke="url(#paint0_linear_353_12219)"/>
<defs>
<linearGradient id="paint0_linear_353_12219" x1="2.34915" y1="-4.11733e-08" x2="10.3065" y2="16.9231" gradientUnits="userSpaceOnUse">
<stop stop-color="white"/>
<stop offset="0.916667" stop-color="#C9C9C9"/>
</linearGradient>
</defs>
</svg>
