<svg width="27" height="28" viewBox="0 0 27 28" fill="none" xmlns="http://www.w3.org/2000/svg">
<circle cx="13.1719" cy="13.1719" r="13.1719" transform="matrix(-1 0 0 1 26.3438 0.828125)" fill="#FAD8D6"/>
<path d="M10.1499 5.88011C10.1332 5.81469 10.1034 5.75333 10.0623 5.69973C10.0212 5.64614 9.96969 5.60142 9.91086 5.56828C9.85202 5.53513 9.78709 5.51425 9.71996 5.50689C9.65284 5.49952 9.58492 5.50583 9.5203 5.52544C9.45568 5.54504 9.3957 5.57753 9.34398 5.62094C9.29226 5.66435 9.24987 5.7178 9.21937 5.77804C9.18886 5.83828 9.17088 5.90408 9.1665 5.97147C9.16212 6.03885 9.17143 6.10642 9.19387 6.17011L9.60388 7.52211C8.68602 8.45706 8.17181 9.71492 8.17188 11.0251H18.1719C18.1719 9.71492 17.6577 8.45706 16.7399 7.52211L17.1499 6.17011C17.1723 6.10642 17.1816 6.03885 17.1773 5.97147C17.1729 5.90408 17.1549 5.83828 17.1244 5.77804C17.0939 5.7178 17.0515 5.66435 16.9998 5.62094C16.948 5.57753 16.8881 5.54504 16.8235 5.52544C16.7588 5.50583 16.6909 5.49952 16.6238 5.50689C16.5567 5.51425 16.4917 5.53513 16.4329 5.56828C16.3741 5.60142 16.3226 5.64614 16.2815 5.69973C16.2404 5.75333 16.2106 5.81469 16.1939 5.88011L15.9029 6.83611C15.0904 6.30667 14.1416 6.02489 13.1719 6.02511C12.2022 6.02489 11.2533 6.30667 10.4409 6.83611L10.1499 5.88011Z" fill="#FF6057"/>
<path d="M18.1719 11.0254V12.0254H13.6719V21.0004C14.9052 20.8764 16.0485 20.2988 16.88 19.3795C17.7115 18.4603 18.1719 17.2649 18.1719 16.0254H18.6719C18.8045 16.0254 18.9317 16.0781 19.0254 16.1718C19.1192 16.2656 19.1719 16.3928 19.1719 16.5254V17.0254C19.1719 17.158 19.2246 17.2852 19.3183 17.3789C19.4121 17.4727 19.5393 17.5254 19.6719 17.5254C19.8045 17.5254 19.9317 17.4727 20.0254 17.3789C20.1192 17.2852 20.1719 17.158 20.1719 17.0254V16.5254C20.1719 16.1276 20.0138 15.746 19.7325 15.4647C19.4512 15.1834 19.0697 15.0254 18.6719 15.0254H18.1719V14.0254H19.6719C19.8045 14.0254 19.9317 13.9727 20.0254 13.8789C20.1192 13.7852 20.1719 13.658 20.1719 13.5254C20.1719 13.3928 20.1192 13.2656 20.0254 13.1718C19.9317 13.0781 19.8045 13.0254 19.6719 13.0254H18.1719V12.0254H18.6719C19.0697 12.0254 19.4512 11.8674 19.7325 11.5861C20.0138 11.3047 20.1719 10.9232 20.1719 10.5254V10.0254C20.1719 9.89278 20.1192 9.76561 20.0254 9.67184C19.9317 9.57807 19.8045 9.52539 19.6719 9.52539C19.5393 9.52539 19.4121 9.57807 19.3183 9.67184C19.2246 9.76561 19.1719 9.89278 19.1719 10.0254V10.5254C19.1719 10.658 19.1192 10.7852 19.0254 10.8789C18.9317 10.9727 18.8045 11.0254 18.6719 11.0254H18.1719ZM12.6719 21.0004V12.0254H8.17188V11.0254H7.67188C7.53927 11.0254 7.41209 10.9727 7.31832 10.8789C7.22455 10.7852 7.17188 10.658 7.17188 10.5254V10.0254C7.17188 9.89278 7.1192 9.76561 7.02543 9.67184C6.93166 9.57807 6.80448 9.52539 6.67188 9.52539C6.53927 9.52539 6.41209 9.57807 6.31832 9.67184C6.22455 9.76561 6.17188 9.89278 6.17188 10.0254V10.5254C6.17188 10.9232 6.32991 11.3047 6.61121 11.5861C6.89252 11.8674 7.27405 12.0254 7.67188 12.0254H8.17188V13.0254H6.67188C6.53927 13.0254 6.41209 13.0781 6.31832 13.1718C6.22455 13.2656 6.17188 13.3928 6.17188 13.5254C6.17188 13.658 6.22455 13.7852 6.31832 13.8789C6.41209 13.9727 6.53927 14.0254 6.67188 14.0254H8.17188V15.0254H7.67188C7.27405 15.0254 6.89252 15.1834 6.61121 15.4647C6.32991 15.746 6.17188 16.1276 6.17188 16.5254V17.0254C6.17188 17.158 6.22455 17.2852 6.31832 17.3789C6.41209 17.4727 6.53927 17.5254 6.67188 17.5254C6.80448 17.5254 6.93166 17.4727 7.02543 17.3789C7.1192 17.2852 7.17188 17.158 7.17188 17.0254V16.5254C7.17188 16.3928 7.22455 16.2656 7.31832 16.1718C7.41209 16.0781 7.53927 16.0254 7.67188 16.0254H8.17188C8.17186 17.2649 8.63226 18.4603 9.46375 19.3795C10.2952 20.2988 11.4386 20.8764 12.6719 21.0004Z" fill="#FF6057"/>
</svg>
