<svg width="27" height="28" viewBox="0 0 27 28" fill="none" xmlns="http://www.w3.org/2000/svg">
<circle cx="13.1719" cy="13.1719" r="13.1719" transform="matrix(-1 0 0 1 26.3438 0.828125)" fill="#EBD99F"/>
<path d="M11.4399 18.6532V17.7067C11.4399 16.5631 10.196 15.4813 9.38915 14.7095C8.2518 13.6223 7.65394 12.1615 7.65394 10.4504C7.65394 7.29545 10.1672 4.77151 13.3328 4.77151C14.0792 4.76942 14.8186 4.91489 15.5085 5.19954C16.1984 5.4842 16.8253 5.90242 17.353 6.43017C17.8808 6.95792 18.299 7.58478 18.5837 8.27471C18.8683 8.96464 19.0138 9.70404 19.0117 10.4504C19.0117 12.1004 18.3882 13.6601 17.2765 14.7095C16.4739 15.4671 15.2258 16.5512 15.2258 17.7067V18.6532M14.5948 22.4391H12.0708M15.2258 20.5462H11.4399M13.3328 18.6532V13.6053" stroke="#AB8200" stroke-linecap="round" stroke-linejoin="round"/>
</svg>
