<svg width="22" height="17" viewBox="0 0 22 17" fill="none" xmlns="http://www.w3.org/2000/svg">
<path d="M18.6783 2.04484C17.3483 1.42484 15.9083 0.974844 14.4083 0.714844C14.3819 0.715219 14.3568 0.726003 14.3383 0.744844C14.1583 1.07484 13.9483 1.50484 13.8083 1.83484C12.2173 1.59499 10.5993 1.59499 9.00832 1.83484C8.86832 1.49484 8.65832 1.07484 8.46832 0.744844C8.45832 0.724844 8.42832 0.714844 8.39832 0.714844C6.89832 0.974844 5.46832 1.42484 4.12832 2.04484C4.11832 2.04484 4.10832 2.05484 4.09832 2.06484C1.37832 6.13484 0.62832 10.0948 0.99832 14.0148C0.99832 14.0348 1.00832 14.0548 1.02832 14.0648C2.82832 15.3848 4.55832 16.1848 6.26832 16.7148C6.29832 16.7248 6.32832 16.7148 6.33832 16.6948C6.73832 16.1448 7.09832 15.5648 7.40832 14.9548C7.42832 14.9148 7.40832 14.8748 7.36832 14.8648C6.79832 14.6448 6.25832 14.3848 5.72832 14.0848C5.68832 14.0648 5.68832 14.0048 5.71832 13.9748C5.82832 13.8948 5.93832 13.8048 6.04832 13.7248C6.06832 13.7048 6.09832 13.7048 6.11832 13.7148C9.55832 15.2848 13.2683 15.2848 16.6683 13.7148C16.6883 13.7048 16.7183 13.7048 16.7383 13.7248C16.8483 13.8148 16.9583 13.8948 17.0683 13.9848C17.1083 14.0148 17.1083 14.0748 17.0583 14.0948C16.5383 14.4048 15.9883 14.6548 15.4183 14.8748C15.3783 14.8848 15.3683 14.9348 15.3783 14.9648C15.6983 15.5748 16.0583 16.1548 16.4483 16.7048C16.4783 16.7148 16.5083 16.7248 16.5383 16.7148C18.2583 16.1848 19.9883 15.3848 21.7883 14.0648C21.8083 14.0548 21.8183 14.0348 21.8183 14.0148C22.2583 9.48484 21.0883 5.55484 18.7183 2.06484C18.7083 2.05484 18.6983 2.04484 18.6783 2.04484ZM7.92832 11.6248C6.89832 11.6248 6.03832 10.6748 6.03832 9.50484C6.03832 8.33484 6.87832 7.38484 7.92832 7.38484C8.98832 7.38484 9.82832 8.34484 9.81832 9.50484C9.81832 10.6748 8.97832 11.6248 7.92832 11.6248ZM14.8983 11.6248C13.8683 11.6248 13.0083 10.6748 13.0083 9.50484C13.0083 8.33484 13.8483 7.38484 14.8983 7.38484C15.9583 7.38484 16.7983 8.34484 16.7883 9.50484C16.7883 10.6748 15.9583 11.6248 14.8983 11.6248Z" fill="white"/>
</svg>
