<svg width="62" height="62" viewBox="0 0 62 62" fill="none" xmlns="http://www.w3.org/2000/svg">
<g clip-path="url(#clip0_59_2072)">
<path d="M30.9999 5.16667V21.9583C31 22.9216 31.3588 23.8503 32.0064 24.5634C32.6541 25.2765 33.5441 25.7228 34.5029 25.8153L34.8749 25.8333H51.6666V51.6667C51.667 52.9702 51.1747 54.2256 50.2884 55.1814C49.4021 56.1372 48.1872 56.7227 46.8874 56.8204L46.4999 56.8333H15.4999C14.1964 56.8338 12.941 56.3415 11.9852 55.4551C11.0294 54.5688 10.4439 53.354 10.3462 52.0542L10.3333 51.6667V10.3333C10.3328 9.02985 10.8251 7.77437 11.7115 6.81859C12.5978 5.8628 13.8126 5.27735 15.1124 5.17959L15.4999 5.16667H30.9999ZM36.1666 5.27776C37.002 5.4551 37.7804 5.83676 38.4322 6.38859L38.7499 6.6805L50.1528 18.0833C50.758 18.6881 51.2037 19.4338 51.4496 20.2533L51.5529 20.6667H36.1666V5.27776Z" fill="#21303B"/>
</g>
<defs>
<clipPath id="clip0_59_2072">
<rect width="62" height="62" fill="white"/>
</clipPath>
</defs>
</svg>
