<svg width="45" height="45" viewBox="0 0 45 45" fill="none" xmlns="http://www.w3.org/2000/svg">
<rect width="45" height="45" rx="22.5" fill="#97FF46"/>
<path d="M11.1968 12C15.6069 13.8901 14.2645 17.3997 11.7205 19.1892C6.17973 23.0862 6.5434 29.5511 14.738 31.9095C14.0799 30.197 14.1405 28.4625 14.8671 26.757C12.9787 25.4192 12.4669 23.4674 15.6117 19.7012C17.5121 17.4252 17.1078 12.3742 11.1967 12.0001L11.1968 12ZM33.805 12C27.894 12.3741 27.4896 17.4252 29.3901 19.7012C32.3779 23.2794 32.0632 25.2201 30.4043 26.5523C30.8441 27.4748 31.1585 28.4164 31.235 29.3852C31.2952 30.1499 31.1993 30.929 30.9066 31.7112C38.4723 29.206 38.671 22.9815 33.2791 19.1892C30.7352 17.3998 29.3948 13.8902 33.8049 12.0001L33.805 12ZM28.8096 25.9573C24.6743 26.4577 20.592 26.867 16.538 25.9931C15.0706 28.3628 15.0249 30.6355 16.5674 32.9969C20.6683 32.6778 24.767 32.6949 28.8624 33C29.8502 31.7775 30.1608 30.6215 30.0683 29.4486C29.9783 28.3065 29.4833 27.1415 28.8097 25.9572L28.8096 25.9573Z" fill="#14252E"/>
</svg>
