<svg width="20" height="22" viewBox="0 0 20 22" fill="none" xmlns="http://www.w3.org/2000/svg">
<path d="M2.87109 3.91016C2.64974 3.91016 2.46419 3.99154 2.31445 4.1543C2.16471 4.31706 2.08984 4.51562 2.08984 4.75C2.08984 4.98438 2.16471 5.18294 2.31445 5.3457C2.46419 5.50846 2.64974 5.58984 2.87109 5.58984H17.1289C17.3503 5.58984 17.5358 5.50846 17.6855 5.3457C17.8353 5.18294 17.9102 4.98438 17.9102 4.75C17.9102 4.51562 17.8353 4.31706 17.6855 4.1543C17.5358 3.99154 17.3503 3.91016 17.1289 3.91016H2.87109ZM2.87109 16.4102C2.64974 16.4102 2.46419 16.4915 2.31445 16.6543C2.16471 16.8171 2.08984 17.0156 2.08984 17.25C2.08984 17.4844 2.16471 17.6829 2.31445 17.8457C2.46419 18.0085 2.64974 18.0898 2.87109 18.0898H17.1289C17.3503 18.0898 17.5358 18.0085 17.6855 17.8457C17.8353 17.6829 17.9102 17.4844 17.9102 17.25C17.9102 17.0156 17.8353 16.8171 17.6855 16.6543C17.5358 16.4915 17.3503 16.4102 17.1289 16.4102H2.87109ZM17.793 10.1797L15.8984 12.4453C15.8594 12.4974 15.8203 12.5365 15.7812 12.5625C15.638 12.6536 15.485 12.6862 15.3223 12.6602C15.1595 12.6341 15.026 12.5625 14.9219 12.4453L13.0273 10.1797C12.9492 10.0885 12.9102 9.97786 12.9102 9.84766C12.9102 9.71745 12.9688 9.60026 13.0859 9.49609C13.2031 9.39193 13.3464 9.33984 13.5156 9.33984H17.3242C17.4544 9.33984 17.5716 9.3724 17.6758 9.4375C17.806 9.52865 17.8841 9.64583 17.9102 9.78906C17.9362 9.93229 17.8971 10.0625 17.793 10.1797ZM2.91016 10.1602C2.76693 10.1602 2.63021 10.1992 2.5 10.2773C2.36979 10.3555 2.26888 10.4596 2.19727 10.5898C2.12565 10.7201 2.08984 10.8568 2.08984 11C2.08984 11.1432 2.12565 11.2799 2.19727 11.4102C2.26888 11.5404 2.36979 11.6445 2.5 11.7227C2.63021 11.8008 2.76693 11.8398 2.91016 11.8398H10.4102C10.5664 11.8398 10.7096 11.8008 10.8398 11.7227C10.9701 11.6445 11.071 11.5404 11.1426 11.4102C11.2142 11.2799 11.25 11.1432 11.25 11C11.25 10.8568 11.2142 10.7201 11.1426 10.5898C11.071 10.4596 10.9701 10.3555 10.8398 10.2773C10.7096 10.1992 10.5664 10.1602 10.4102 10.1602H2.91016Z" fill="#ADB1B8"/>
</svg>
