<svg width="94" height="67" viewBox="0 0 94 67" fill="none" xmlns="http://www.w3.org/2000/svg">
<path d="M85.9479 2H22.3021C18.787 2 15.9375 4.3645 15.9375 7.28125V46.0104C15.9375 48.9272 18.787 51.2917 22.3021 51.2917H85.9479C89.463 51.2917 92.3125 48.9272 92.3125 46.0104V7.28125C92.3125 4.3645 89.463 2 85.9479 2Z" stroke="#E8E8E8" stroke-width="2.5" stroke-linejoin="round"/>
<path d="M32.9092 65.3753H75.3397M54.1245 51.292V65.3753" stroke="#E8E8E8" stroke-width="2.5" stroke-linecap="round" stroke-linejoin="round"/>
<path d="M23.6753 29.3C23.0931 28.7314 22.3059 28.4141 21.4875 28.4141H5.8875C5.06911 28.4141 4.28191 28.7314 3.69969 29.3C3.11706 29.869 2.7875 30.6432 2.7875 31.4531V61.9219C2.7875 62.7318 3.11706 63.506 3.69969 64.075C4.28191 64.6436 5.0691 64.9609 5.8875 64.9609H21.4875C22.3059 64.9609 23.0931 64.6436 23.6753 64.075C24.2579 63.506 24.5875 62.7318 24.5875 61.9219V31.4531C24.5875 30.6432 24.2579 29.869 23.6753 29.3ZM2.55988 28.2201C3.44044 27.3601 4.63721 26.875 5.8875 26.875H21.4875C22.7378 26.875 23.9346 27.3601 24.8151 28.2201C25.6953 29.0796 26.1875 30.2428 26.1875 31.4531V61.9219C26.1875 63.1322 25.6953 64.2954 24.8151 65.1549C23.9346 66.0149 22.7378 66.5 21.4875 66.5H5.8875C4.63721 66.5 3.44044 66.0149 2.55988 65.1549C1.67972 64.2954 1.1875 63.1322 1.1875 61.9219V31.4531C1.1875 30.2428 1.67972 29.0796 2.55988 28.2201Z" fill="#E8E8E8" stroke="#E8E8E8"/>
<path d="M13.6869 62.7752C14.3765 62.7752 15.0378 62.5013 15.5254 62.0137C16.013 61.5261 16.2869 60.8648 16.2869 60.1752C16.2869 59.4856 16.013 58.8243 15.5254 58.3367C15.0378 57.8491 14.3765 57.5752 13.6869 57.5752C12.9974 57.5752 12.336 57.8491 11.8484 58.3367C11.3608 58.8243 11.0869 59.4856 11.0869 60.1752C11.0869 60.8648 11.3608 61.5261 11.8484 62.0137C12.336 62.5013 12.9974 62.7752 13.6869 62.7752Z" fill="white"/>
<path d="M43.3593 27.6718C43.7302 27.3008 43.7302 26.6992 43.3593 26.3282L37.3135 20.2825C36.9425 19.9115 36.341 19.9115 35.97 20.2825C35.599 20.6535 35.599 21.255 35.97 21.626L41.344 27L35.97 32.374C35.599 32.745 35.599 33.3465 35.97 33.7175C36.341 34.0885 36.9425 34.0885 37.3135 33.7175L43.3593 27.6718ZM15.6875 27.95H42.6875V26.05H15.6875V27.95Z" fill="#E8E8E8"/>
</svg>
