<svg width="202" height="160" viewBox="0 0 202 160" fill="none" xmlns="http://www.w3.org/2000/svg">
<path d="M85.404 64.8691C85.188 64.8691 85.008 64.7971 84.864 64.6531C84.72 64.5091 84.648 64.3291 84.648 64.1131C84.648 64.0411 84.66 63.9691 84.684 63.8971C84.708 63.8251 84.732 63.7531 84.756 63.6811L92.82 52.0171L85.26 40.8571C85.188 40.7131 85.152 40.5691 85.152 40.4251C85.152 40.2091 85.224 40.0291 85.368 39.8851C85.512 39.7411 85.68 39.6691 85.872 39.6691H89.58C89.868 39.6691 90.096 39.7411 90.264 39.8851C90.432 40.0291 90.576 40.1851 90.696 40.3531L95.988 48.1291L101.316 40.3531C101.412 40.1851 101.544 40.0291 101.712 39.8851C101.904 39.7411 102.144 39.6691 102.432 39.6691H105.924C106.14 39.6691 106.32 39.7411 106.464 39.8851C106.608 40.0291 106.68 40.2091 106.68 40.4251C106.68 40.5691 106.632 40.7131 106.536 40.8571L99.012 52.0171L107.076 63.6811C107.124 63.7531 107.16 63.8251 107.184 63.8971C107.208 63.9691 107.22 64.0411 107.22 64.1131C107.22 64.3291 107.136 64.5091 106.968 64.6531C106.824 64.7971 106.656 64.8691 106.464 64.8691H102.648C102.36 64.8691 102.132 64.7971 101.964 64.6531C101.796 64.5091 101.664 64.3651 101.568 64.2211L95.808 56.0851L90.156 64.2211C90.06 64.3651 89.928 64.5091 89.76 64.6531C89.592 64.7971 89.352 64.8691 89.04 64.8691H85.404Z" fill="white"/>
<path d="M85.404 123.682C85.188 123.682 85.008 123.61 84.864 123.466C84.72 123.322 84.648 123.142 84.648 122.926C84.648 122.854 84.66 122.782 84.684 122.71C84.708 122.638 84.732 122.566 84.756 122.494L92.82 110.83L85.26 99.6696C85.188 99.5256 85.152 99.3816 85.152 99.2376C85.152 99.0216 85.224 98.8416 85.368 98.6976C85.512 98.5536 85.68 98.4816 85.872 98.4816H89.58C89.868 98.4816 90.096 98.5536 90.264 98.6976C90.432 98.8416 90.576 98.9976 90.696 99.1656L95.988 106.942L101.316 99.1656C101.412 98.9976 101.544 98.8416 101.712 98.6976C101.904 98.5536 102.144 98.4816 102.432 98.4816H105.924C106.14 98.4816 106.32 98.5536 106.464 98.6976C106.608 98.8416 106.68 99.0216 106.68 99.2376C106.68 99.3816 106.632 99.5256 106.536 99.6696L99.012 110.83L107.076 122.494C107.124 122.566 107.16 122.638 107.184 122.71C107.208 122.782 107.22 122.854 107.22 122.926C107.22 123.142 107.136 123.322 106.968 123.466C106.824 123.61 106.656 123.682 106.464 123.682H102.648C102.36 123.682 102.132 123.61 101.964 123.466C101.796 123.322 101.664 123.178 101.568 123.034L95.808 114.898L90.156 123.034C90.06 123.178 89.928 123.322 89.76 123.466C89.592 123.61 89.352 123.682 89.04 123.682H85.404Z" fill="white"/>
<rect x="131" y="52.8311" width="6" height="55.8215" fill="white"/>
<path d="M52.6114 55.9095L-0.000979696 57.331L53.002 4.49778L52.6114 55.9095Z" fill="white"/>
<path fill-rule="evenodd" clip-rule="evenodd" d="M0.00390625 57.3412V153.001V160.001H7.00391H195.004H202.004V153.001V11.498V4.49805H195.004H52.9091L45.9009 11.498H195.004V153.001H7.00391V50.3494L0.00390625 57.3412Z" fill="white"/>
</svg>
