<svg width="27" height="28" viewBox="0 0 27 28" fill="none" xmlns="http://www.w3.org/2000/svg">
<circle cx="13.1719" cy="13.1719" r="13.1719" transform="matrix(-1 0 0 1 26.3438 0.828125)" fill="#D9D9D9"/>
<path d="M9.17219 10.5655C9.17017 10.6159 9.17792 10.6662 9.19495 10.7132C9.21199 10.7603 9.23795 10.8032 9.27125 10.8393C9.30455 10.8754 9.34448 10.9039 9.38858 10.9231C9.43268 10.9422 9.48002 10.9517 9.5277 10.9508H10.7447C10.9483 10.9508 11.1105 10.7745 11.1371 10.5608C11.2698 9.53766 11.9337 8.79211 13.1167 8.79211C14.1287 8.79211 15.055 9.32709 15.055 10.6139C15.055 11.6043 14.5033 12.0597 13.6315 12.7522C12.6388 13.5149 11.8525 14.4055 11.9086 15.8514L11.913 16.1898C11.9145 16.2922 11.9541 16.3898 12.0231 16.4615C12.0921 16.5333 12.185 16.5735 12.2818 16.5735H13.4781C13.5759 16.5735 13.6697 16.5324 13.7389 16.4593C13.8081 16.3862 13.8469 16.287 13.8469 16.1836V16.0198C13.8469 14.9 14.2496 14.574 15.3368 13.7021C16.2352 12.9799 17.1719 12.1783 17.1719 10.4953C17.1719 8.13859 15.2896 7 13.2288 7C11.3598 7 9.31233 7.92023 9.17219 10.5655ZM11.469 19.5541C11.469 20.3855 12.0959 21 12.9589 21C13.8572 21 14.4753 20.3855 14.4753 19.5541C14.4753 18.6932 13.8558 18.088 12.9574 18.088C12.0959 18.088 11.469 18.6932 11.469 19.5541Z" fill="#7D7D7D"/>
</svg>
