<svg width="40" height="40" viewBox="0 0 40 40" fill="none" xmlns="http://www.w3.org/2000/svg">
<rect width="40" height="40" rx="20" fill="#FFC700"/>
<path d="M25.3333 23.7229C24.6578 23.7229 24.0533 23.994 23.5911 24.4187L17.2533 20.6687C17.2978 20.4608 17.3333 20.253 17.3333 20.0361C17.3333 19.8193 17.2978 19.6114 17.2533 19.4036L23.52 15.6898C24 16.1416 24.6311 16.4217 25.3333 16.4217C26.8089 16.4217 28 15.2108 28 13.7108C28 12.2108 26.8089 11 25.3333 11C23.8578 11 22.6667 12.2108 22.6667 13.7108C22.6667 13.9277 22.7022 14.1355 22.7467 14.3434L16.48 18.0572C16 17.6054 15.3689 17.3253 14.6667 17.3253C13.1911 17.3253 12 18.5361 12 20.0361C12 21.5361 13.1911 22.747 14.6667 22.747C15.3689 22.747 16 22.4669 16.48 22.0151L22.8089 25.7741C22.7644 25.9639 22.7378 26.1627 22.7378 26.3614C22.7378 27.8163 23.9022 29 25.3333 29C26.7644 29 27.9289 27.8163 27.9289 26.3614C27.9289 24.9066 26.7644 23.7229 25.3333 23.7229Z" fill="black"/>
</svg>
