<svg width="16" height="16" viewBox="0 0 16 16" fill="none" xmlns="http://www.w3.org/2000/svg">
<path d="M14.2112 8C14.2112 7.648 14.1615 7.328 14.1118 6.992L16 5.376L14.3437 2.608L11.942 3.392C11.412 2.96 10.8157 2.624 10.1532 2.384L9.65631 0H6.34369L5.84679 2.384C5.18426 2.624 4.58799 2.96 4.05797 3.392L1.65631 2.608L0 5.376L1.8882 6.992C1.83851 7.328 1.78882 7.648 1.78882 8C1.78882 8.352 1.83851 8.672 1.8882 9.008L0 10.624L1.65631 13.392L4.05797 12.608C4.58799 13.04 5.18426 13.376 5.84679 13.616L6.34369 16H9.65631L10.1532 13.616C10.8157 13.376 11.412 13.04 11.942 12.608L14.3437 13.392L16 10.624L14.1118 9.008C14.1615 8.672 14.2112 8.352 14.2112 8ZM8 11.2C6.17805 11.2 4.68737 9.76 4.68737 8C4.68737 6.24 6.17805 4.8 8 4.8C9.82195 4.8 11.3126 6.24 11.3126 8C11.3126 9.76 9.82195 11.2 8 11.2Z" fill="white"/>
</svg>
