<svg width="45" height="45" viewBox="0 0 45 45" fill="none" xmlns="http://www.w3.org/2000/svg">
  <rect width="45" height="45" rx="22.5" fill="#FFCE1E"/>
  <path d="M21.5926 24.846L22.5517 25.6339C22.6787 25.7384 22.838 25.7955 23.0024 25.7955C23.1668 25.7955 23.3262 25.7384 23.4531 25.6339L24.4113 24.846C24.5182 24.7575 24.5953 24.6382 24.632 24.5043C24.6687 24.3705 24.6632 24.2286 24.6164 24.0979C24.5696 23.9672 24.4836 23.8542 24.3703 23.7741C24.2569 23.694 24.1216 23.6508 23.9828 23.6504H22.0211C21.882 23.6503 21.7463 23.6932 21.6326 23.7732C21.5189 23.8532 21.4327 23.9664 21.3857 24.0973C21.3388 24.2282 21.3335 24.3704 21.3706 24.5044C21.4076 24.6384 21.4851 24.7577 21.5926 24.846ZM23.1665 26.7812C23.1033 26.7571 23.0357 26.7468 22.9681 26.7511C22.9006 26.7555 22.8348 26.7743 22.7752 26.8063C22.7156 26.8384 22.6636 26.8829 22.6228 26.9368C22.5819 26.9908 22.5532 27.0529 22.5385 27.1189C22.459 27.4377 22.3531 27.8236 22.1346 28.1338C21.9341 28.4195 21.637 28.6427 21.1083 28.6427C20.4897 28.6427 20.1624 28.1376 20.1624 27.6968C20.1624 27.5714 20.1126 27.4511 20.0239 27.3624C19.9352 27.2737 19.8149 27.2239 19.6895 27.2239C19.5641 27.2239 19.4438 27.2737 19.3551 27.3624C19.2664 27.4511 19.2166 27.5714 19.2166 27.6968C19.2166 28.5179 19.8352 29.5886 21.1083 29.5886C21.9832 29.5886 22.5536 29.1819 22.9083 28.6787C22.9398 28.6326 22.9704 28.586 23.0001 28.5387C23.0284 28.5866 23.059 28.6333 23.0918 28.6787C23.4465 29.1819 24.0169 29.5886 24.8918 29.5886C26.1649 29.5886 26.7835 28.5179 26.7835 27.6968C26.7835 27.5714 26.7337 27.4511 26.645 27.3624C26.5563 27.2737 26.436 27.2239 26.3106 27.2239C26.1852 27.2239 26.0649 27.2737 25.9762 27.3624C25.8875 27.4511 25.8377 27.5714 25.8377 27.6968C25.8377 28.1376 25.5104 28.6427 24.8918 28.6427C24.3621 28.6427 24.0661 28.4195 23.8655 28.1338C23.647 27.8236 23.5411 27.4377 23.4616 27.1189C23.4418 27.0322 23.3978 26.9529 23.3349 26.89C23.2872 26.8421 23.2298 26.805 23.1665 26.7812Z" fill="#14252E"/>
  <path d="M23.0001 35C17.1357 35 14.02 33.2142 13.8904 33.1386C12.3586 32.384 11.07 31.2136 10.1719 29.7613C9.27385 28.3089 8.8026 26.6331 8.81203 24.9255C8.81266 24.3536 8.86531 23.7861 8.96999 23.2229C9.24614 21.3651 9.82783 19.5657 10.6915 17.8977C9.96308 16.8415 9.65065 15.5534 9.81422 14.2809C9.97779 13.0084 10.6058 11.8412 11.5777 11.0035C12.5495 10.1659 13.7966 9.71693 15.0793 9.74288C16.362 9.76884 17.5899 10.2679 18.5271 11.1441C21.4297 10.1689 24.5715 10.1689 27.4741 11.1441C28.4105 10.2595 29.6417 9.75364 30.9296 9.72459C32.2174 9.69554 33.4703 10.1453 34.4455 10.9869C35.4208 11.8284 36.0492 13.0019 36.209 14.2801C36.3688 15.5583 36.0488 16.8504 35.3107 17.9062C36.177 19.5866 36.7605 21.3983 37.0379 23.2684C37.4002 25.238 37.1088 27.2721 36.208 29.0608C35.3073 30.8495 33.8466 32.2947 32.0484 33.1764L32.0455 33.1783C31.9122 33.253 28.8012 35 23.0001 35ZM23.0001 22.0217C21.4686 22.0229 19.9706 22.4699 18.6889 23.3081C18.2672 23.5853 17.9215 23.9636 17.6833 24.4084C17.4451 24.8533 17.3219 25.3507 17.3249 25.8553V26.5553C17.3011 28.0858 17.8852 29.5633 18.949 30.6638C20.0129 31.7644 21.4697 32.3982 23.0001 32.4263C24.5306 32.3982 25.9874 31.7644 27.0513 30.6638C28.1151 29.5633 28.6992 28.0858 28.6754 26.5553V25.8553C28.6784 25.3507 28.5552 24.8533 28.317 24.4084C28.0788 23.9636 27.7331 23.5853 27.3114 23.3081C26.0297 22.4699 24.5316 22.0229 23.0001 22.0217ZM14.4911 16.0343C15.2745 15.2409 16.1716 14.5683 17.1528 14.0385C17.0127 13.6935 16.7932 13.3865 16.5121 13.1423C16.231 12.8982 15.8962 12.7239 15.535 12.6336C15.1738 12.5434 14.7964 12.5397 14.4335 12.6228C14.0705 12.706 13.7324 12.8737 13.4465 13.1122C13.1607 13.3508 12.9352 13.6535 12.7884 13.9956C12.6417 14.3378 12.5778 14.7098 12.6019 15.0813C12.6261 15.4529 12.7377 15.8134 12.9276 16.1337C13.1174 16.454 13.3803 16.7249 13.6946 16.9244C13.9399 16.6217 14.2054 16.3247 14.4911 16.0334M31.5092 16.0334C31.7955 16.3241 32.061 16.6211 32.3057 16.9244C32.6202 16.7249 32.8831 16.454 33.0731 16.1337C33.263 15.8134 33.3747 15.4527 33.3989 15.0811C33.4231 14.7095 33.3592 14.3374 33.2123 13.9952C33.0655 13.6529 32.8399 13.3502 32.554 13.1116C32.268 12.8731 31.9298 12.7054 31.5667 12.6224C31.2037 12.5393 30.8262 12.5431 30.465 12.6335C30.1037 12.724 29.7689 12.8984 29.4878 13.1427C29.2068 13.3871 28.9874 13.6943 28.8475 14.0395C29.8286 14.5686 30.7256 15.2406 31.5092 16.0334ZM18.2708 20.1006V21.0465C18.2708 21.2974 18.3704 21.5379 18.5478 21.7153C18.7252 21.8927 18.9658 21.9924 19.2166 21.9924C19.4675 21.9924 19.7081 21.8927 19.8855 21.7153C20.0629 21.5379 20.1625 21.2974 20.1625 21.0465V20.1006C20.1625 19.8498 20.0629 19.6092 19.8855 19.4318C19.7081 19.2544 19.4675 19.1547 19.2166 19.1547C18.9658 19.1547 18.7252 19.2544 18.5478 19.4318C18.3704 19.6092 18.2708 19.8498 18.2708 20.1006ZM25.8378 20.1006V21.0465C25.8378 21.2974 25.9374 21.5379 26.1148 21.7153C26.2922 21.8927 26.5328 21.9924 26.7836 21.9924C27.0345 21.9924 27.2751 21.8927 27.4525 21.7153C27.6299 21.5379 27.7295 21.2974 27.7295 21.0465V20.1006C27.7295 19.8498 27.6299 19.6092 27.4525 19.4318C27.2751 19.2544 27.0345 19.1547 26.7836 19.1547C26.5328 19.1547 26.2922 19.2544 26.1148 19.4318C25.9374 19.6092 25.8378 19.8498 25.8378 20.1006Z" fill="#14252E"/>
</svg>
