<svg width="24" height="24" viewBox="0 0 24 24" fill="none" xmlns="http://www.w3.org/2000/svg">
<mask id="path-1-inside-1_435_60" fill="white">
<path d="M24 12C24 9.4014 23.1565 6.87302 21.5962 4.79496C20.036 2.7169 17.8433 1.20146 15.3479 0.476476C12.8525 -0.24851 10.1891 -0.143868 7.7583 0.774672C5.32746 1.69321 3.26046 3.37601 1.86806 5.57008C0.475665 7.76415 -0.166892 10.3509 0.0369921 12.9415C0.240876 15.5321 1.28018 17.9865 2.99867 19.9357C4.71715 21.885 7.02195 23.2237 9.56655 23.7507C12.1112 24.2776 14.7581 23.9644 17.1094 22.8579L16.6 21.7754C14.4831 22.7715 12.1001 23.0536 9.80916 22.5792C7.51825 22.1047 5.44324 20.8995 3.89608 19.1446C2.34892 17.3897 1.41323 15.18 1.22968 12.8476C1.04612 10.5153 1.62461 8.18645 2.87819 6.21113C4.13177 4.2358 5.99269 2.72077 8.18119 1.89381C10.3697 1.06685 12.7675 0.972637 15.0141 1.62534C17.2607 2.27805 19.2348 3.6424 20.6395 5.51328C22.0442 7.38417 22.8036 9.66047 22.8036 12H24Z"/>
</mask>
<path d="M24 12C24 9.4014 23.1565 6.87302 21.5962 4.79496C20.036 2.7169 17.8433 1.20146 15.3479 0.476476C12.8525 -0.24851 10.1891 -0.143868 7.7583 0.774672C5.32746 1.69321 3.26046 3.37601 1.86806 5.57008C0.475665 7.76415 -0.166892 10.3509 0.0369921 12.9415C0.240876 15.5321 1.28018 17.9865 2.99867 19.9357C4.71715 21.885 7.02195 23.2237 9.56655 23.7507C12.1112 24.2776 14.7581 23.9644 17.1094 22.8579L16.6 21.7754C14.4831 22.7715 12.1001 23.0536 9.80916 22.5792C7.51825 22.1047 5.44324 20.8995 3.89608 19.1446C2.34892 17.3897 1.41323 15.18 1.22968 12.8476C1.04612 10.5153 1.62461 8.18645 2.87819 6.21113C4.13177 4.2358 5.99269 2.72077 8.18119 1.89381C10.3697 1.06685 12.7675 0.972637 15.0141 1.62534C17.2607 2.27805 19.2348 3.6424 20.6395 5.51328C22.0442 7.38417 22.8036 9.66047 22.8036 12H24Z" stroke="#F7931A" stroke-width="4" mask="url(#path-1-inside-1_435_60)"/>
</svg>
