<svg width="26" height="26" viewBox="0 0 26 26" fill="none" xmlns="http://www.w3.org/2000/svg">
<path d="M24.9998 11.9028V13.0068C24.9983 15.5944 24.1604 18.1123 22.611 20.1849C21.0616 22.2574 18.8838 23.7736 16.4023 24.5073C13.9208 25.241 11.2686 25.1529 8.84129 24.2561C6.41397 23.3594 4.34155 21.702 2.93313 19.5312C1.52471 17.3603 0.855751 14.7924 1.02601 12.2103C1.19627 9.62826 2.19664 7.1704 3.87791 5.20331C5.55918 3.23623 7.83128 1.86532 10.3553 1.29504C12.8794 0.724763 15.5202 0.985673 17.8838 2.03886" stroke="#07AE3B" stroke-linecap="round" stroke-linejoin="round"/>
<path d="M24.9983 3.40039L15.8268 12.581C14.265 14.1444 11.7312 14.1451 10.1686 12.5824L9.39844 11.8123" stroke="#07AE3B" stroke-linecap="round" stroke-linejoin="round"/>
</svg>
