<svg width="34" height="28" viewBox="0 0 34 28" fill="none" xmlns="http://www.w3.org/2000/svg">
<path d="M30.5389 7.21457V8.10184C30.5544 10.6786 30.0685 13.2329 29.1093 15.6166C28.1501 18.0003 26.7368 20.166 24.9511 21.9881C23.1655 23.8102 21.0432 25.2524 18.7072 26.2312C16.3712 27.21 13.868 27.7058 11.3428 27.69C7.6677 27.7009 4.0677 26.6285 0.975586 24.6016H2.64772C5.68006 24.6017 8.62449 23.5621 11.0084 21.6497C9.59532 21.6368 8.22258 21.1676 7.08706 20.3093C5.95154 19.4509 5.1116 18.2477 4.68772 16.8721C5.11352 16.9414 5.54409 16.9757 5.97526 16.9745C6.57246 16.9701 7.16719 16.8957 7.74772 16.7527C6.23697 16.438 4.87915 15.6004 3.90408 14.3815C2.92902 13.1627 2.39658 11.6375 2.3969 10.0641C3.33177 10.5903 4.37347 10.8882 5.44018 10.9343C4.49897 10.299 3.72781 9.43423 3.19644 8.41833C2.66508 7.40242 2.39028 6.26737 2.3969 5.11584C2.39898 3.91714 2.71041 2.74015 3.29985 1.70327C4.9916 3.83212 7.10267 5.57463 9.49636 6.81796C11.8901 8.0613 14.513 8.77773 17.1953 8.92085C17.0892 8.40446 17.0332 7.87867 17.0281 7.35107C16.9845 5.94659 17.3668 4.56262 18.1229 3.38814C18.8789 2.21366 19.9717 1.30592 21.2522 0.788881C22.5326 0.271839 23.9383 0.170694 25.2772 0.499256C26.6161 0.827819 27.8229 1.57007 28.733 2.62467C30.2463 2.31448 31.695 1.73705 33.0137 0.918384C32.5101 2.51062 31.4509 3.85863 30.0373 4.70633C31.3812 4.55814 32.695 4.2014 33.9333 3.64844C33.0164 5.0151 31.8867 6.21969 30.5891 7.21457H30.5389Z" fill="white"/>
</svg>
